<svg width="106" height="40" viewBox="0 0 106 40" fill="none" xmlns="http://www.w3.org/2000/svg">
<path d="M5.195 39.995C3.72833 39.995 2.59167 39.5917 1.785 38.785C1.015 37.9783 0.63 36.8417 0.63 35.375V4.85C0.63 3.34667 1.05167 2.21 1.895 1.44C2.73833 0.633331 3.93 0.229997 5.47 0.229997C6.75333 0.229997 7.76167 0.486664 8.495 0.999997C9.265 1.47666 9.96167 2.28333 10.585 3.42L22.41 24.65H20.485L32.255 3.42C32.915 2.28333 33.6117 1.47666 34.345 0.999997C35.115 0.486664 36.1417 0.229997 37.425 0.229997C38.8917 0.229997 40.01 0.633331 40.78 1.44C41.5867 2.21 41.99 3.34667 41.99 4.85V35.375C41.99 36.8417 41.605 37.9783 40.835 38.785C40.065 39.5917 38.9283 39.995 37.425 39.995C35.9583 39.995 34.8217 39.5917 34.015 38.785C33.245 37.9783 32.86 36.8417 32.86 35.375V16.455H34.015L25.16 31.855C24.6467 32.6617 24.0967 33.2667 23.51 33.67C22.96 34.0733 22.2083 34.275 21.255 34.275C20.3383 34.275 19.5867 34.0733 19 33.67C18.4133 33.2667 17.8817 32.6617 17.405 31.855L8.495 16.4H9.76V35.375C9.76 36.8417 9.375 37.9783 8.605 38.785C7.835 39.5917 6.69833 39.995 5.195 39.995Z" fill="#1D2849"/>
<path d="M54.2434 39.995C52.6301 39.995 51.3651 39.555 50.4484 38.675C49.5684 37.7583 49.1284 36.4567 49.1284 34.77V5.95C49.1284 4.26333 49.5684 2.98 50.4484 2.1C51.3651 1.18333 52.6851 0.724998 54.4084 0.724998H72.7234C74.0434 0.724998 75.0334 1.055 75.6934 1.715C76.3534 2.375 76.6834 3.32833 76.6834 4.575C76.6834 5.85833 76.3534 6.84833 75.6934 7.545C75.0334 8.205 74.0434 8.535 72.7234 8.535H59.2484V16.345H71.5134C72.7967 16.345 73.7684 16.675 74.4284 17.335C75.1251 17.995 75.4734 18.9483 75.4734 20.195C75.4734 21.4783 75.1251 22.45 74.4284 23.11C73.7684 23.77 72.7967 24.1 71.5134 24.1H59.2484V34.77C59.2484 38.2533 57.5801 39.995 54.2434 39.995ZM83.362 39.94C82.152 39.94 81.1804 39.61 80.447 38.95C79.7137 38.29 79.3287 37.4467 79.292 36.42C79.292 35.3933 79.7137 34.3483 80.557 33.285L88.697 23.385V27.73L81.217 18.6C80.3737 17.5 79.952 16.455 79.952 15.465C79.9887 14.4383 80.3737 13.595 81.107 12.935C81.8404 12.275 82.812 11.945 84.022 11.945C85.1954 11.945 86.1487 12.1467 86.882 12.55C87.652 12.9167 88.3854 13.54 89.082 14.42L94.197 21.02H90.787L95.902 14.42C96.5987 13.54 97.332 12.9167 98.102 12.55C98.872 12.1467 99.8254 11.945 100.962 11.945C102.209 11.945 103.18 12.275 103.877 12.935C104.61 13.595 104.977 14.4383 104.977 15.465C105.014 16.4917 104.592 17.5367 103.712 18.6L96.232 27.73V23.385L104.427 33.285C105.307 34.3117 105.729 35.3383 105.692 36.365C105.655 37.3917 105.27 38.2533 104.537 38.95C103.804 39.61 102.814 39.94 101.567 39.94C100.43 39.94 99.477 39.7567 98.707 39.39C97.937 38.9867 97.2037 38.345 96.507 37.465L90.787 30.15H94.142L88.367 37.465C87.707 38.3083 86.992 38.9317 86.222 39.335C85.4887 39.7383 84.5354 39.94 83.362 39.94Z" fill="#1D2849"/>
<path d="M54.2434 39.995C52.6301 39.995 51.3651 39.555 50.4484 38.675C49.5684 37.7583 49.1284 36.4567 49.1284 34.77V5.95C49.1284 4.26333 49.5684 2.98 50.4484 2.1C51.3651 1.18333 52.6851 0.724998 54.4084 0.724998H72.7234C74.0434 0.724998 75.0334 1.055 75.6934 1.715C76.3534 2.375 76.6834 3.32833 76.6834 4.575C76.6834 5.85833 76.3534 6.84833 75.6934 7.545C75.0334 8.205 74.0434 8.535 72.7234 8.535H59.2484V16.345H71.5134C72.7967 16.345 73.7684 16.675 74.4284 17.335C75.1251 17.995 75.4734 18.9483 75.4734 20.195C75.4734 21.4783 75.1251 22.45 74.4284 23.11C73.7684 23.77 72.7967 24.1 71.5134 24.1H59.2484V34.77C59.2484 38.2533 57.5801 39.995 54.2434 39.995ZM83.362 39.94C82.152 39.94 81.1804 39.61 80.447 38.95C79.7137 38.29 79.3287 37.4467 79.292 36.42C79.292 35.3933 79.7137 34.3483 80.557 33.285L88.697 23.385V27.73L81.217 18.6C80.3737 17.5 79.952 16.455 79.952 15.465C79.9887 14.4383 80.3737 13.595 81.107 12.935C81.8404 12.275 82.812 11.945 84.022 11.945C85.1954 11.945 86.1487 12.1467 86.882 12.55C87.652 12.9167 88.3854 13.54 89.082 14.42L94.197 21.02H90.787L95.902 14.42C96.5987 13.54 97.332 12.9167 98.102 12.55C98.872 12.1467 99.8254 11.945 100.962 11.945C102.209 11.945 103.18 12.275 103.877 12.935C104.61 13.595 104.977 14.4383 104.977 15.465C105.014 16.4917 104.592 17.5367 103.712 18.6L96.232 27.73V23.385L104.427 33.285C105.307 34.3117 105.729 35.3383 105.692 36.365C105.655 37.3917 105.27 38.2533 104.537 38.95C103.804 39.61 102.814 39.94 101.567 39.94C100.43 39.94 99.477 39.7567 98.707 39.39C97.937 38.9867 97.2037 38.345 96.507 37.465L90.787 30.15H94.142L88.367 37.465C87.707 38.3083 86.992 38.9317 86.222 39.335C85.4887 39.7383 84.5354 39.94 83.362 39.94Z" fill="#C8A44C"/>
</svg>
